<svg xmlns:xlink="http://www.w3.org/1999/xlink" width="24" height="24" role="presentation" focusable="false" viewBox="0 0 24 24" xmlns="http://www.w3.org/2000/svg"><path fill-rule="evenodd" clip-rule="evenodd" d="M2 12C2 6.47667 6.47667 2 12 2C17.5233 2 22 6.47667 22 12C22 17.5233 17.5233 22 12 22C6.47667 22 2 17.5233 2 12ZM4 12C4 16.4188 7.58124 20 12 20C16.4188 20 20 16.4188 20 12C20 7.58124 16.4188 4 12 4C7.58124 4 4 7.58124 4 12ZM8 10C7.99999 7.48383 10.3214 5.51108 12.9389 6.10713C14.3829 6.43513 15.5569 7.60513 15.8899 9.04813C16.3809 11.1771 15.1719 13.0911 13.3589 13.7471C13.1549 13.8201 13.0099 14.0021 13.0099 14.2191V14.0001C13.0099 14.5521 12.5629 15.0001 12.0099 15.0001C11.4579 15.0001 11.0099 14.5521 11.0099 14.0001V12.9871C11.0179 12.4411 11.4599 12.0001 11.9999 12.0001C13.1029 12.0001 13.9999 11.1021 13.9999 10.0001C13.9999 8.89713 13.1029 8.00013 11.9999 8.00013C10.8959 8.00013 9.99935 8.92313 10.0004 10.0271C9.98522 10.5666 9.54291 11 9 11C8.47773 11 8.04856 10.599 8.00385 10.0882C8.00385 10.0882 8 10.0297 8 10ZM12 18C11.448 18 11 17.552 11 17C11 16.448 11.448 16 12 16C12.552 16 13 16.448 13 17C13 17.552 12.552 18 12 18Z" fill="#FFFFFF"></path></svg>